{"title":"Man of Steel 2013 1080p BRRIP x265 HEVC 10bits L5-ROIMEZ","uid":15554163,"size":6442268526,"categoryP":"video","categoryS":"hd___movies","magnet":"?xt=urn:btih:a22437a2f52b69b5e8b829e4a56b421366b34166&amp;dn=Man+of+Steel+2013+1080p+BRRIP+x265+HEVC+10bits+L5-ROIMEZ&amp;tr=udp%3A%2F%2Ftracker.leechers-paradise.org%3A6969&amp;tr=udp%3A%2F%2Fzer0day.ch%3A1337&amp;tr=udp%3A%2F%2Fopen.demonii.com%3A1337&amp;tr=udp%3A%2F%2Ftracker.coppersurfer.tk%3A6969&amp;tr=udp%3A%2F%2Fexodus.desync.com%3A6969","seeders":1,"leechers":2,"uploader":"Pirulo233","files":7,"time":1471049963,"description":"Complete name: Man.of.Steel.2013.1080p.BRRIP.265.HEVC.10bits.L5-ROIMEZ\r\nClark Kent, one of the last of an extinguished race disguised as an unremarkable human, is forced to reveal his identity when Earth is invaded by an army of survivors who threaten to bring the planet to the brink of destruction.\r\n\r\nGenres: Action, Adventure, Fantasy  \r\nCast: Henry Cavill, Amy Adams, Michael Shannon\r\n\r\nRelease date:  21 June 2013    \r\nLanguage: English\r\nSubtitles: English &amp; Spanish\r\nSource: Man.of.Steel.2013.Bluray.1080p.DTS-HD-7.1.x264-Grym\r\n\r\nGeneral\r\nFormat                      : Matroska\r\nFormat version              : Version 4 / Version 2\r\nFile size                   : 5.99 GiB\r\nDuration                    : 2h 23mn\r\nOverall bit rate            : 5 999 Kbps\r\nEncoded date                : UTC 2016-08-12 17:18:12\r\nWriting application         : mkvmerge v9.0.1 ('Obstacles') 64bit\r\nWriting library             : libebml v1.3.3 + libmatroska v1.4.4\r\n\r\nVideo\r\nID                          : 1\r\nFormat                      : HEVC\r\nFormat/Info                 : High Efficiency Video Coding\r\nFormat profile              : Main   @Main\r\nCodec ID                    : V_MPEGH/ISO/HEVC\r\nDuration                    : 2h 23mn\r\nEncoding settings[Bit rate] : 2 pass/4 488 Kbps\r\nWidth                       : 1 920 pixels\r\nHeight                      : 804 pixels\r\nDisplay aspect ratio        : 2.40:1\r\nFrame rate mode             : Constant\r\nFrame rate                  : 23.976 (24000/1001) fps\r\nOriginal frame rate         : 23.976 (23976/1000) fps\r\nColor space                 : YUV\r\nChroma subsampling          : 4:2:0\r\nBit depth                   : 10 bits\r\nBits/(Pixel*Frame)          : 0.121\r\nStream size                 : 4.48 GiB (75%)\r\nWriting library             : x265 1.9+140\r\nDefault                     : Yes\r\nForced                      : No\r\n\r\nAudio\r\nID                          : 2\r\nFormat                      : DTS\r\nFormat/Info                 : Digital Theater Systems\r\nMode                        : 16\r\nFormat settings, Endianness : Big\r\nCodec ID                    : A_DTS\r\nDuration                    : 2h 23mn\r\nBit rate mode               : Constant\r\nBit rate                    : 1 509 Kbps\r\nChannel(s)                  : 6 channels\r\nChannel positions           : Front: L C R, Side: L R, LFE\r\nSampling rate               : 48.0 KHz\r\nFrame rate                  : 93.750 fps (512 spf)\r\nBit depth                   : 24 bits\r\nCompression mode            : Lossy\r\nStream size                 : 1.51 GiB (25%)\r\nDefault                     : Yes\r\nForced                      : No\r\n\r\nScreencaps:  \nhttps://s5.postimg.org/h8rmfgnt3/Man_of_Steel_2013.png","torrent":{"xt":"urn:btih:a22437a2f52b69b5e8b829e4a56b421366b34166","amp;dn":"Man+of+Steel+2013+1080p+BRRIP+x265+HEVC+10bits+L5-ROIMEZ","amp;tr":["udp%3A%2F%2Ftracker.leechers-paradise.org%3A6969","udp%3A%2F%2Fzer0day.ch%3A1337","udp%3A%2F%2Fopen.demonii.com%3A1337","udp%3A%2F%2Ftracker.coppersurfer.tk%3A6969","udp%3A%2F%2Fexodus.desync.com%3A6969"],"infoHash":"a22437a2f52b69b5e8b829e4a56b421366b34166","infoHashBuffer":{"type":"Buffer","data":[162,36,55,162,245,43,105,181,232,184,41,228,165,107,66,19,102,179,65,102]},"announce":[],"urlList":[]}}